<svg width="45" height="45" viewBox="0 0 45 45" fill="none" xmlns="http://www.w3.org/2000/svg">
<path d="M33.75 4.5H31.5C30.8812 4.5 30.375 5.00625 30.375 5.625C30.375 6.24375 30.8812 6.75 31.5 6.75V13.8023C30.825 14.1891 30.375 14.9203 30.375 15.75V18C29.1305 18 28.125 19.0055 28.125 20.25V30.375C28.125 31.6195 29.1305 32.625 30.375 32.625H31.5V39.375C31.5 39.9938 32.0062 40.5 32.625 40.5H36.8086C37.5398 40.5 38.0742 39.8109 37.8984 39.1008L36.2812 32.625H39.375C39.9938 32.625 40.5 32.1188 40.5 31.5V30.375C40.5 29.7563 39.9938 29.25 39.375 29.25H36V27.3727L39.7336 26.1281C40.1906 25.9734 40.5 25.5445 40.5 25.0594V19.118C40.5 18.4992 39.9938 17.993 39.375 17.993H38.25C37.6312 17.993 37.125 18.4992 37.125 19.118V23.0555L36 23.4281V15.743C36 14.9133 35.55 14.182 34.875 13.7953V5.625C34.875 5.00625 34.3688 4.5 33.75 4.5ZM20.25 19.125C12.7969 19.125 6.75 25.1719 6.75 32.625V36C6.75 37.2445 7.75547 38.25 9 38.25C10.2445 38.25 11.25 37.2445 11.25 36V32.625C11.25 30.3398 12.1008 28.2586 13.5 26.6695V40.5H24.75V19.8914C23.3438 19.3922 21.825 19.125 20.25 19.125ZM24.1875 10.6875C24.1875 7.88906 21.9234 5.625 19.125 5.625C16.3266 5.625 14.0625 7.88906 14.0625 10.6875C14.0625 13.4859 16.3266 15.75 19.125 15.75C21.9234 15.75 24.1875 13.4859 24.1875 10.6875Z" fill="white"/>
</svg>
