<svg width="21" height="21" viewBox="0 0 21 21" fill="none" xmlns="http://www.w3.org/2000/svg">
<path d="M5.25039 3.14998C5.25039 2.56919 4.78117 2.09998 4.20039 2.09998C3.61961 2.09998 3.15039 2.56919 3.15039 3.14998V17.85C3.15039 18.4308 3.61961 18.9 4.20039 18.9C4.78117 18.9 5.25039 18.4308 5.25039 17.85V13.86L7.30773 13.2431C8.68258 12.8297 10.1657 12.9576 11.4487 13.6008C12.8498 14.3029 14.4838 14.3883 15.9505 13.837L17.1679 13.3809C17.578 13.2267 17.8504 12.8362 17.8504 12.3965V4.26888C17.8504 3.51419 17.0563 3.02201 16.3804 3.35998L15.9932 3.55357C14.5199 4.29185 12.7841 4.29185 11.3076 3.55357C10.1132 2.95638 8.73836 2.83826 7.46195 3.22216L5.25039 3.88498V3.14998Z" fill="white"/>
</svg>
