<svg width="23" height="23" viewBox="0 0 23 23" fill="none" xmlns="http://www.w3.org/2000/svg">
<path d="M18.3825 2.57057C17.6217 1.80981 16.392 1.80981 15.6312 2.57057L14.7836 3.41818L18.1845 6.81904L19.0321 5.97143C19.7928 5.21066 19.7928 3.98094 19.0321 3.22017L18.3825 2.57057ZM7.98884 10.2129C7.77694 10.4248 7.61367 10.6854 7.51988 10.9737L6.49163 14.0584C6.39089 14.3572 6.47079 14.6872 6.69311 14.913C6.91543 15.1388 7.24545 15.2152 7.54767 15.1145L10.6324 14.0862C10.9173 13.9924 11.1778 13.8292 11.3932 13.6173L17.0068 7.99666L13.606 4.5958L7.98884 10.2129ZM5.33485 4.03999C3.49374 4.03999 2 5.53373 2 7.37484V16.2678C2 18.1089 3.49374 19.6026 5.33485 19.6026H14.2278C16.0689 19.6026 17.5626 18.1089 17.5626 16.2678V12.9329C17.5626 12.3181 17.0659 11.8213 16.451 11.8213C15.8362 11.8213 15.3394 12.3181 15.3394 12.9329V16.2678C15.3394 16.8826 14.8427 17.3794 14.2278 17.3794H5.33485C4.71999 17.3794 4.22324 16.8826 4.22324 16.2678V7.37484C4.22324 6.75998 4.71999 6.26323 5.33485 6.26323H8.66971C9.28457 6.26323 9.78132 5.76647 9.78132 5.15161C9.78132 4.53675 9.28457 4.03999 8.66971 4.03999H5.33485Z" fill="black"/>
</svg>
