<svg width="24" height="21" viewBox="0 0 24 21" fill="none" xmlns="http://www.w3.org/2000/svg">
<path d="M13.1995 2.09998C11.8758 2.09998 10.7996 3.04169 10.7996 4.19998V5.24998H8.99972V2.88748C8.99972 2.45107 8.59849 2.09998 8.09977 2.09998C7.60105 2.09998 7.19983 2.45107 7.19983 2.88748V5.24998H4.79997V2.88748C4.79997 2.45107 4.39875 2.09998 3.90003 2.09998C3.40131 2.09998 3.00009 2.45107 3.00009 2.88748V5.3156C1.96515 5.54857 1.2002 6.37216 1.2002 7.34998V16.8C1.2002 17.9583 2.27638 18.9 3.60005 18.9H20.399C21.7227 18.9 22.7989 17.9583 22.7989 16.8V10.5C22.7989 9.34169 21.7227 8.39998 20.399 8.39998H17.9992V4.19998C17.9992 3.04169 16.923 2.09998 15.5993 2.09998H13.1995ZM15.5993 5.77498V6.82498C15.5993 7.11373 15.3293 7.34998 14.9994 7.34998H13.7994C13.4694 7.34998 13.1995 7.11373 13.1995 6.82498V5.77498C13.1995 5.48623 13.4694 5.24998 13.7994 5.24998H14.9994C15.3293 5.24998 15.5993 5.48623 15.5993 5.77498ZM14.9994 8.39998C15.3293 8.39998 15.5993 8.63623 15.5993 8.92498V9.97498C15.5993 10.2637 15.3293 10.5 14.9994 10.5H13.7994C13.4694 10.5 13.1995 10.2637 13.1995 9.97498V8.92498C13.1995 8.63623 13.4694 8.39998 13.7994 8.39998H14.9994ZM15.5993 12.075V13.125C15.5993 13.4137 15.3293 13.65 14.9994 13.65H13.7994C13.4694 13.65 13.1995 13.4137 13.1995 13.125V12.075C13.1995 11.7862 13.4694 11.55 13.7994 11.55H14.9994C15.3293 11.55 15.5993 11.7862 15.5993 12.075ZM19.7991 11.55C20.129 11.55 20.399 11.7862 20.399 12.075V13.125C20.399 13.4137 20.129 13.65 19.7991 13.65H18.5991C18.2691 13.65 17.9992 13.4137 17.9992 13.125V12.075C17.9992 11.7862 18.2691 11.55 18.5991 11.55H19.7991ZM10.7996 12.075V13.125C10.7996 13.4137 10.5296 13.65 10.1996 13.65H8.99972C8.66974 13.65 8.39975 13.4137 8.39975 13.125V12.075C8.39975 11.7862 8.66974 11.55 8.99972 11.55H10.1996C10.5296 11.55 10.7996 11.7862 10.7996 12.075ZM10.1996 8.39998C10.5296 8.39998 10.7996 8.63623 10.7996 8.92498V9.97498C10.7996 10.2637 10.5296 10.5 10.1996 10.5H8.99972C8.66974 10.5 8.39975 10.2637 8.39975 9.97498V8.92498C8.39975 8.63623 8.66974 8.39998 8.99972 8.39998H10.1996ZM5.9999 12.075V13.125C5.9999 13.4137 5.72992 13.65 5.39994 13.65H4.20001C3.87003 13.65 3.60005 13.4137 3.60005 13.125V12.075C3.60005 11.7862 3.87003 11.55 4.20001 11.55H5.39994C5.72992 11.55 5.9999 11.7862 5.9999 12.075ZM5.39994 8.39998C5.72992 8.39998 5.9999 8.63623 5.9999 8.92498V9.97498C5.9999 10.2637 5.72992 10.5 5.39994 10.5H4.20001C3.87003 10.5 3.60005 10.2637 3.60005 9.97498V8.92498C3.60005 8.63623 3.87003 8.39998 4.20001 8.39998H5.39994Z" fill="white"/>
</svg>
