<svg width="24" height="21" viewBox="0 0 24 21" fill="none" xmlns="http://www.w3.org/2000/svg">
<path d="M7.06073 2.09998C5.76252 2.09998 4.70703 3.04169 4.70703 4.19998V16.8C4.70703 17.9583 5.76252 18.9 7.06073 18.9H16.4755C17.7738 18.9 18.8292 17.9583 18.8292 16.8V4.19998C18.8292 3.04169 17.7738 2.09998 16.4755 2.09998H7.06073ZM11.1797 13.65H12.3566C13.0075 13.65 13.5334 14.1192 13.5334 14.7V17.325H10.0029V14.7C10.0029 14.1192 10.5288 13.65 11.1797 13.65ZM8.23758 5.77498C8.23758 5.48623 8.50238 5.24998 8.82601 5.24998H10.0029C10.3265 5.24998 10.5913 5.48623 10.5913 5.77498V6.82498C10.5913 7.11373 10.3265 7.34998 10.0029 7.34998H8.82601C8.50238 7.34998 8.23758 7.11373 8.23758 6.82498V5.77498ZM13.5334 5.24998H14.7103C15.0339 5.24998 15.2987 5.48623 15.2987 5.77498V6.82498C15.2987 7.11373 15.0339 7.34998 14.7103 7.34998H13.5334C13.2098 7.34998 12.945 7.11373 12.945 6.82498V5.77498C12.945 5.48623 13.2098 5.24998 13.5334 5.24998ZM8.23758 9.97498C8.23758 9.68623 8.50238 9.44998 8.82601 9.44998H10.0029C10.3265 9.44998 10.5913 9.68623 10.5913 9.97498V11.025C10.5913 11.3137 10.3265 11.55 10.0029 11.55H8.82601C8.50238 11.55 8.23758 11.3137 8.23758 11.025V9.97498ZM13.5334 9.44998H14.7103C15.0339 9.44998 15.2987 9.68623 15.2987 9.97498V11.025C15.2987 11.3137 15.0339 11.55 14.7103 11.55H13.5334C13.2098 11.55 12.945 11.3137 12.945 11.025V9.97498C12.945 9.68623 13.2098 9.44998 13.5334 9.44998Z" fill="white"/>
</svg>
