<svg width="45" height="45" viewBox="0 0 45 45" fill="none" xmlns="http://www.w3.org/2000/svg">
<path d="M33.8719 11.2223C35.3274 12.3191 37.1063 13.3809 39.0891 13.648C40.0102 13.7746 40.861 13.1207 40.9876 12.1996C41.1141 11.2785 40.4602 10.4277 39.5391 10.3012C38.4211 10.1535 37.2047 9.50664 35.904 8.5293C33.204 6.49023 29.5407 6.49023 26.8336 8.5293C25.1461 9.80195 23.9719 10.3785 23.0016 10.3785C22.0313 10.3785 20.8571 9.80195 19.1696 8.5293C16.4696 6.49023 12.8063 6.49023 10.0993 8.5293C8.79849 9.50664 7.58208 10.1535 6.46412 10.3012C5.54302 10.4277 4.88912 11.2715 5.01568 12.1996C5.14224 13.1277 5.98599 13.7746 6.91412 13.648C8.89693 13.3809 10.6829 12.3191 12.1313 11.2223C13.629 10.0902 15.6399 10.0902 17.1376 11.2223C18.8391 12.509 20.8149 13.7465 23.0016 13.7465C25.1883 13.7465 27.1571 12.502 28.8657 11.2223C30.3633 10.0902 32.3743 10.0902 33.8719 11.2223ZM33.8719 21.3473C35.3274 22.4441 37.1063 23.5059 39.0891 23.773C40.0102 23.8996 40.861 23.2457 40.9876 22.3246C41.1141 21.4035 40.4602 20.5527 39.5391 20.4262C38.4211 20.2785 37.2047 19.6316 35.904 18.6543C33.204 16.6152 29.5407 16.6152 26.8336 18.6543C25.1461 19.927 23.9719 20.5035 23.0016 20.5035C22.0313 20.5035 20.8571 19.927 19.1696 18.6543C16.4696 16.6152 12.8063 16.6152 10.0993 18.6543C8.79849 19.6316 7.58208 20.2785 6.46412 20.4262C5.54302 20.5457 4.88912 21.3965 5.01568 22.3246C5.14224 23.2527 5.98599 23.8996 6.91412 23.773C8.89693 23.5059 10.6829 22.4441 12.1313 21.3473C13.629 20.2152 15.6399 20.2152 17.1376 21.3473C18.8391 22.634 20.8149 23.8715 23.0016 23.8715C25.1883 23.8715 27.1571 22.627 28.8657 21.3473C30.3633 20.2152 32.3743 20.2152 33.8719 21.3473ZM28.8657 31.4723C30.3633 30.3402 32.3743 30.3402 33.8719 31.4723C35.3274 32.5691 37.1063 33.6309 39.0891 33.898C40.0102 34.0246 40.861 33.3707 40.9876 32.4496C41.1141 31.5285 40.4602 30.6777 39.5391 30.5512C38.4211 30.4035 37.2047 29.7566 35.904 28.7793C33.204 26.7402 29.5407 26.7402 26.8336 28.7793C25.1461 30.052 23.9719 30.6285 23.0016 30.6285C22.0313 30.6285 20.8571 30.052 19.1696 28.7793C16.4696 26.7402 12.8063 26.7402 10.0993 28.7793C8.79849 29.7566 7.58208 30.4035 6.46412 30.5512C5.54302 30.6777 4.88912 31.5215 5.01568 32.4496C5.14224 33.3777 5.98599 34.0246 6.91412 33.898C8.89693 33.6309 10.6829 32.5691 12.1313 31.4723C13.629 30.3402 15.6399 30.3402 17.1376 31.4723C18.8391 32.759 20.8149 33.9965 23.0016 33.9965C25.1883 33.9965 27.1571 32.752 28.8657 31.4723Z" fill="white"/>
</svg>
