<svg width="32" height="32" viewBox="0 0 32 32" fill="none" xmlns="http://www.w3.org/2000/svg">
<path d="M30 0C31.1046 0 32 0.895431 32 2V27.1719L31.9902 27.3691C31.9448 27.827 31.7423 28.2577 31.4141 28.5859L28.5859 31.4141L28.4395 31.5469C28.1343 31.797 27.7618 31.9513 27.3691 31.9902L27.1719 32H2L1.7959 31.9893C0.787223 31.887 0 31.0357 0 30V2C0 0.895431 0.895431 0 2 0H30ZM2 30H6V24C6 22.3431 7.34315 21 9 21H23C24.6569 21 26 22.3431 26 24V30H27.1719L30 27.1719V2H28V14C28 15.6569 26.6569 17 25 17H7C5.34315 17 4 15.6569 4 14V2H2V30ZM9 23C8.44771 23 8 23.4477 8 24V30H24V24C24 23.4477 23.5523 23 23 23H9ZM12 24C12.5523 24 13 24.4477 13 25V28C13 28.5523 12.5523 29 12 29H10C9.44772 29 9 28.5523 9 28V25C9 24.4477 9.44772 24 10 24H12ZM6 14C6 14.5523 6.44772 15 7 15H25C25.5523 15 26 14.5523 26 14V2H6V14ZM24 11C24.5523 11 25 11.4477 25 12V13C25 13.5523 24.5523 14 24 14H22C21.4477 14 21 13.5523 21 13V12C21 11.4477 21.4477 11 22 11H24ZM13 7C13.5523 7 14 7.44772 14 8V9C14 9.55228 13.5523 10 13 10H8C7.44772 10 7 9.55228 7 9V8C7 7.44772 7.44772 7 8 7H13ZM20 3C20.5523 3 21 3.44772 21 4V5C21 5.55228 20.5523 6 20 6H8C7.44772 6 7 5.55228 7 5V4C7 3.44772 7.44772 3 8 3H20Z" fill="#4421AE"/>
<path d="M30 0C31.1046 0 32 0.895431 32 2V27.1719L31.9902 27.3691C31.9448 27.827 31.7423 28.2577 31.4141 28.5859L28.5859 31.4141L28.4395 31.5469C28.1343 31.797 27.7618 31.9513 27.3691 31.9902L27.1719 32H2L1.7959 31.9893C0.787223 31.887 0 31.0357 0 30V2C0 0.895431 0.895431 0 2 0H30ZM2 30H6V24C6 22.3431 7.34315 21 9 21H23C24.6569 21 26 22.3431 26 24V30H27.1719L30 27.1719V2H28V14C28 15.6569 26.6569 17 25 17H7C5.34315 17 4 15.6569 4 14V2H2V30ZM9 23C8.44771 23 8 23.4477 8 24V30H24V24C24 23.4477 23.5523 23 23 23H9ZM12 24C12.5523 24 13 24.4477 13 25V28C13 28.5523 12.5523 29 12 29H10C9.44772 29 9 28.5523 9 28V25C9 24.4477 9.44772 24 10 24H12ZM6 14C6 14.5523 6.44772 15 7 15H25C25.5523 15 26 14.5523 26 14V2H6V14ZM24 11C24.5523 11 25 11.4477 25 12V13C25 13.5523 24.5523 14 24 14H22C21.4477 14 21 13.5523 21 13V12C21 11.4477 21.4477 11 22 11H24ZM13 7C13.5523 7 14 7.44772 14 8V9C14 9.55228 13.5523 10 13 10H8C7.44772 10 7 9.55228 7 9V8C7 7.44772 7.44772 7 8 7H13ZM20 3C20.5523 3 21 3.44772 21 4V5C21 5.55228 20.5523 6 20 6H8C7.44772 6 7 5.55228 7 5V4C7 3.44772 7.44772 3 8 3H20Z" stroke="#4421AE"/>
</svg>
