<svg width="23" height="23" viewBox="0 0 23 23" fill="none" xmlns="http://www.w3.org/2000/svg">
<path d="M5.05088 3.08672C5.05088 2.6202 4.67556 2.24487 4.20903 2.24487C3.74251 2.24487 3.36719 2.6202 3.36719 3.08672V19.3624C3.36719 19.829 3.74251 20.2043 4.20903 20.2043C4.67556 20.2043 5.05088 19.829 5.05088 19.3624V15.8547L7.86756 15.1497C9.30923 14.7884 10.8351 14.9568 12.1645 15.6197C13.7149 16.3949 15.5143 16.4896 17.1349 15.8793L18.3521 15.4233C18.7905 15.2584 19.0817 14.841 19.0817 14.371V4.55995C19.0817 3.75318 18.2328 3.22703 17.5102 3.58832L17.1735 3.75669C15.5494 4.57048 13.6377 4.57048 12.0137 3.75669C10.7825 3.13934 9.36886 2.985 8.03242 3.31823L5.05088 4.06888V3.08672ZM5.05088 5.80518L8.43932 4.95632C9.38639 4.72131 10.3861 4.83005 11.2595 5.265C13.1852 6.22611 15.4231 6.30679 17.398 5.50352V13.9851L16.5421 14.3043C15.36 14.7463 14.0446 14.6797 12.9151 14.1149C11.2244 13.2696 9.29169 13.0591 7.45716 13.5151L5.05088 14.1184V5.80518Z" fill="white"/>
</svg>
